<?xml version="1.0" encoding="UTF-8" standalone="no"?>
<!-- Created with Inkscape (http://www.inkscape.org/) -->

<svg
   width="249.64023"
   height="86.30455"
   viewBox="0 0 66.050644 22.834747"
   version="1.1"
   id="svg1"
   inkscape:version="1.4.2 (ebf0e940d0, 2025-05-08)"
   sodipodi:docname="logo-revolukit.svg"
   xmlns:inkscape="http://www.inkscape.org/namespaces/inkscape"
   xmlns:sodipodi="http://sodipodi.sourceforge.net/DTD/sodipodi-0.dtd"
   xmlns="http://www.w3.org/2000/svg"
   xmlns:svg="http://www.w3.org/2000/svg">
  <sodipodi:namedview
     id="namedview1"
     pagecolor="#ffffff"
     bordercolor="#000000"
     borderopacity="0.25"
     inkscape:showpageshadow="2"
     inkscape:pageopacity="0.0"
     inkscape:pagecheckerboard="0"
     inkscape:deskcolor="#d1d1d1"
     inkscape:document-units="px"
     showguides="true"
     inkscape:zoom="2.7794613"
     inkscape:cx="139.4155"
     inkscape:cy="41.374924"
     inkscape:window-width="1707"
     inkscape:window-height="1067"
     inkscape:window-x="0"
     inkscape:window-y="0"
     inkscape:window-maximized="1"
     inkscape:current-layer="text1">
    <sodipodi:guide
       position="86.524205,-198.14421"
       orientation="1,0"
       id="guide6"
       inkscape:locked="false" />
    <sodipodi:guide
       position="174.29792,-212.14491"
       orientation="1,0"
       id="guide7"
       inkscape:locked="false" />
    <inkscape:page
       x="0"
       y="0"
       width="66.050644"
       height="22.834747"
       id="page8"
       margin="0"
       bleed="0" />
    <sodipodi:guide
       position="63.53595,29.084659"
       orientation="1,0"
       id="guide1"
       inkscape:locked="false" />
  </sodipodi:namedview>
  <defs
     id="defs1">
    <rect
       x="87.786797"
       y="161.18231"
       width="368.41672"
       height="188.52574"
       id="rect2" />
  </defs>
  <g
     inkscape:label="Layer 1"
     inkscape:groupmode="layer"
     id="layer1"
     transform="translate(63.503798,226.3559)">
    <g
       id="text1"
       style="font-weight:bold;font-size:1.53331px;line-height:1.4;font-family:Inconsolata;-inkscape-font-specification:'Inconsolata Bold';text-align:center;text-anchor:middle;fill:#008080;stroke-width:10.1162;stroke-dasharray:8.09299, 8.09299"
       aria-label="revolukit&#10;">
      <path
         style="font-size:19.6775px;font-family:'Open Sans';-inkscape-font-specification:'Open Sans Bold';letter-spacing:-1.36464px;fill:#aca793"
         d="m -57.508308,-224.03129 q 0.220987,0 0.509232,0.0288 0.297853,0.0192 0.480407,0.0577 l -0.220987,2.74793 q -0.144122,-0.048 -0.413151,-0.0673 -0.25942,-0.0288 -0.451583,-0.0288 -0.566881,0 -1.104938,0.14412 -0.528448,0.14412 -0.951207,0.4708 -0.422759,0.31707 -0.672571,0.84552 -0.240204,0.51884 -0.240204,1.27788 v 5.46704 h -2.930487 v -10.74192 h 2.219484 l 0.432367,1.80634 h 0.144122 q 0.317069,-0.54767 0.787869,-0.99925 0.480408,-0.46119 1.085721,-0.73022 0.614922,-0.27864 1.325926,-0.27864 z"
         id="path1" />
      <path
         style="font-size:14.3109px;font-family:'Open Sans';-inkscape-font-specification:'Open Sans';letter-spacing:-0.599908px;fill:#aca793"
         d="m -53.130769,-221.04664 q 1.0831,0 1.865727,0.41926 0.782628,0.41228 1.20888,1.2019 0.426252,0.78961 0.426252,1.92861 v 1.03419 h -5.038163 q 0.03494,0.90142 0.538056,1.41851 0.510106,0.51011 1.411525,0.51011 0.747688,0 1.369597,-0.15373 0.62191,-0.15373 1.278758,-0.4612 v 1.64911 q -0.579983,0.2865 -1.215868,0.41927 -0.628897,0.13276 -1.530316,0.13276 -1.173941,0 -2.082348,-0.43324 -0.901419,-0.43324 -1.418512,-1.32068 -0.510105,-0.88744 -0.510105,-2.23608 0,-1.3696 0.461191,-2.278 0.468179,-0.9154 1.299721,-1.3696 0.831541,-0.46119 1.935605,-0.46119 z m 0.01398,1.51634 q -0.621909,0 -1.034186,0.3983 -0.405289,0.3983 -0.468179,1.25081 h 2.990755 q -0.007,-0.47517 -0.174694,-0.84552 -0.160718,-0.37035 -0.489142,-0.58697 -0.321436,-0.21662 -0.824554,-0.21662 z"
         id="path2" />
      <path
         style="font-size:14.3109px;font-family:'Open Sans';-inkscape-font-specification:'Open Sans';fill:#aca793"
         d="m -46.638117,-213.0876 -2.976779,-7.8123 h 2.229091 l 1.509352,4.45119 q 0.12578,0.39132 0.195657,0.82456 0.07686,0.43324 0.104816,0.77564 h 0.0559 q 0.02096,-0.37035 0.09783,-0.78962 0.08385,-0.41926 0.21662,-0.81058 l 1.502365,-4.45119 h 2.22909 l -2.976779,7.8123 z m 13.38153,-3.92013 q 0,0.97829 -0.265535,1.73297 -0.258546,0.75467 -0.761664,1.27875 -0.49613,0.5171 -1.201892,0.78263 -0.698774,0.26553 -1.57923,0.26553 -0.824554,0 -1.51634,-0.26553 -0.684799,-0.26553 -1.194905,-0.78263 -0.503117,-0.52408 -0.782627,-1.27875 -0.272522,-0.75468 -0.272522,-1.73297 0,-1.29972 0.461191,-2.20113 0.461191,-0.90142 1.313696,-1.3696 0.852505,-0.46818 2.033434,-0.46818 1.097075,0 1.942592,0.46818 0.852505,0.46818 1.33466,1.3696 0.489142,0.90141 0.489142,2.20113 z m -5.401526,0 q 0,0.76866 0.167705,1.29274 0.167706,0.52408 0.524081,0.78961 0.356375,0.26554 0.92937,0.26554 0.566007,0 0.915395,-0.26554 0.356375,-0.26553 0.517093,-0.78961 0.167706,-0.52408 0.167706,-1.29274 0,-0.77563 -0.167706,-1.28574 -0.160718,-0.51709 -0.517093,-0.77564 -0.356375,-0.25855 -0.92937,-0.25855 -0.845517,0 -1.229843,0.57999 -0.377338,0.57998 -0.377338,1.73994 z m 9.2937,3.92013 h -2.131262 v -10.87293 h 2.131262 z m 9.405503,-7.8123 v 7.8123 h -1.635132 l -0.286497,-0.99925 h -0.111804 q -0.251559,0.3983 -0.628897,0.64986 -0.377338,0.25156 -0.831542,0.37035 -0.454203,0.11879 -0.943345,0.11879 -0.838529,0 -1.460439,-0.29348 -0.621909,-0.30047 -0.971296,-0.92937 -0.342399,-0.6289 -0.342399,-1.63513 v -5.09407 h 2.131262 v 4.563 q 0,0.83853 0.300473,1.26478 0.300473,0.42625 0.95732,0.42625 0.649861,0 1.020211,-0.29348 0.370351,-0.30048 0.517093,-0.87347 0.153731,-0.57998 0.153731,-1.41153 v -3.67555 z m 4.367339,-3.06063 v 4.86347 q 0,0.44023 -0.03494,0.88046 -0.03494,0.44022 -0.07687,0.88045 h 0.02795 q 0.21662,-0.30746 0.440228,-0.60793 0.230596,-0.30048 0.489142,-0.57999 l 2.187164,-2.37583 h 2.403784 l -3.102558,3.38906 3.2912273,4.42324 h -2.4596863 l -2.250053,-3.16545 -0.915395,0.73371 v 2.43174 h -2.131262 v -10.87293 z m 8.8744358,3.06063 v 7.8123 h -2.131262 v -7.8123 z m -1.0621371,-3.06063 q 0.4751666,0 0.817566,0.22361 0.3423995,0.21662 0.3423995,0.81756 0,0.59396 -0.3423995,0.82456 -0.3423994,0.22361 -0.817566,0.22361 -0.4821544,0 -0.8245538,-0.22361 -0.3354117,-0.2306 -0.3354117,-0.82456 0,-0.60094 0.3354117,-0.81756 0.3423994,-0.22361 0.8245538,-0.22361 z m 6.5894426,9.31466 q 0.34938725,0 0.67781122,-0.0699 0.33541171,-0.0699 0.66383568,-0.17469 v 1.58622 q -0.34239946,0.15373 -0.85250477,0.25156 -0.50311753,0.10481 -1.10406353,0.10481 -0.6987744,0 -1.2577939,-0.2236 -0.5520318,-0.2306 -0.873468,-0.78962 -0.3144485,-0.56601 -0.3144485,-1.57224 v -3.7664 h -1.0202107 v -0.90141 l 1.173941,-0.71275 0.6149215,-1.64911 h 1.3626101 v 1.66308 h 2.18716387 v 1.60019 H -2.1191996 v 3.7664 q 0,0.44721 0.2515588,0.67082 0.2585465,0.21662 0.6778111,0.21662 z"
         id="path3" />
    </g>
    <text
       xml:space="preserve"
       transform="matrix(0.19166394,0,0,0.19166394,-17.482662,-63.191318)"
       id="text2"
       style="font-weight:bold;font-size:8px;line-height:1.4;font-family:Inconsolata;-inkscape-font-specification:'Inconsolata Bold';text-align:center;writing-mode:lr-tb;direction:ltr;text-anchor:middle;white-space:pre;shape-inside:url(#rect2);fill:#008080;stroke-width:52.7811;stroke-dasharray:42.2249, 42.2249"><tspan
         sodipodi:role="line"
         id="tspan2" /></text>
    <path
       style="font-size:4.09291px;line-height:1.4;font-family:'Open Sans';-inkscape-font-specification:'Open Sans';text-align:center;text-anchor:middle;stroke-width:2.89322;stroke-dasharray:2.31457, 2.31457"
       d="m -61.271479,-205.90111 -0.359728,-0.9273 h -1.171116 l -0.35773,0.9273 h -0.34374 l 1.143136,-2.93378 h 0.30577 l 1.135143,2.93378 z m -0.461651,-1.22907 -0.341742,-0.9213 q -0.01199,-0.036 -0.03997,-0.11792 -0.02598,-0.0819 -0.05396,-0.16987 -0.02798,-0.0879 -0.04597,-0.14189 -0.01998,0.0819 -0.04397,0.16388 -0.02198,0.0799 -0.04397,0.14988 -0.02198,0.0679 -0.03797,0.11592 l -0.347737,0.9213 z m 2.162367,-1.00124 q 0.06595,0 0.137896,0.008 0.07195,0.006 0.127903,0.018 l -0.04197,0.30776 q -0.05396,-0.014 -0.119909,-0.022 -0.06595,-0.008 -0.123907,-0.008 -0.1319,0 -0.249811,0.054 -0.115913,0.052 -0.203846,0.15188 -0.08793,0.0979 -0.137896,0.23782 -0.04996,0.1379 -0.04996,0.30777 v 1.17511 h -0.333748 v -2.19034 h 0.275791 l 0.03597,0.40369 h 0.01399 q 0.06795,-0.12191 0.163876,-0.22183 0.09593,-0.10192 0.221832,-0.16188 0.127904,-0.0599 0.283786,-0.0599 z m 2.14638,3.20957 v -0.93929 q 0,-0.0779 0.004,-0.17986 0.004,-0.10193 0.01399,-0.17587 h -0.02198 q -0.09193,0.15189 -0.261803,0.25381 -0.169871,0.10192 -0.437669,0.10192 -0.401697,0 -0.645513,-0.28378 -0.243816,-0.28379 -0.243816,-0.84736 0,-0.36972 0.111916,-0.62353 0.111915,-0.25381 0.315761,-0.38371 0.205845,-0.1319 0.479638,-0.1319 0.261803,0 0.427677,0.10392 0.165875,0.10192 0.259804,0.24981 h 0.01599 l 0.04996,-0.31376 h 0.263801 v 3.1696 z m -0.641516,-1.21508 q 0.231825,0 0.371719,-0.0859 0.139895,-0.0879 0.203846,-0.26381 0.06595,-0.17586 0.06995,-0.43767 v -0.0699 q 0,-0.42368 -0.143892,-0.64152 -0.143891,-0.21983 -0.501621,-0.21983 -0.307768,0 -0.457654,0.23582 -0.149887,0.23382 -0.149887,0.63552 0,0.4017 0.149887,0.62553 0.149886,0.22183 0.457654,0.22183 z m 3.485369,-1.95452 v 2.19034 h -0.271795 l -0.04796,-0.30777 h -0.01799 q -0.06795,0.11392 -0.175868,0.19186 -0.107918,0.0779 -0.243816,0.11591 -0.133898,0.04 -0.285784,0.04 -0.259804,0 -0.435671,-0.0839 -0.175867,-0.0839 -0.265799,-0.25981 -0.08793,-0.17587 -0.08793,-0.45166 v -1.43491 h 0.335747 v 1.41093 q 0,0.27379 0.123906,0.40969 0.123907,0.1339 0.377715,0.1339 0.243816,0 0.387707,-0.0919 0.14589,-0.0919 0.209842,-0.2698 0.06395,-0.17986 0.06395,-0.43966 v -1.15313 z m 1.03322,0 v 2.19034 h -0.33175 v -2.19034 z m -0.161878,-0.81939 q 0.08194,0 0.139894,0.054 0.05996,0.052 0.05996,0.16388 0,0.10992 -0.05996,0.16388 -0.05796,0.054 -0.139894,0.054 -0.08593,0 -0.143891,-0.054 -0.05596,-0.054 -0.05596,-0.16388 0,-0.11192 0.05596,-0.16388 0.05796,-0.054 0.143891,-0.054 z m 1.570813,2.77791 q 0.08194,0 0.167874,-0.014 0.08593,-0.014 0.139894,-0.034 v 0.25781 q -0.05796,0.026 -0.161878,0.044 -0.101923,0.018 -0.199849,0.018 -0.173869,0 -0.315761,-0.0599 -0.141893,-0.062 -0.227828,-0.20785 -0.08394,-0.14589 -0.08394,-0.40369 v -1.29902 h -0.311765 v -0.16188 l 0.313763,-0.1299 0.131901,-0.47564 h 0.199849 v 0.50762 h 0.641516 v 0.2598 h -0.641516 v 1.28903 q 0,0.20584 0.09393,0.30776 0.09593,0.10193 0.253808,0.10193 z m 1.594796,-1.99849 q 0.279789,0 0.479638,0.1239 0.199849,0.12391 0.305769,0.34774 0.10592,0.22183 0.10592,0.51961 v 0.20584 h -1.512857 q 0.006,0.38571 0.191855,0.58756 0.185859,0.20185 0.523604,0.20185 0.207844,0 0.367723,-0.038 0.159879,-0.038 0.331749,-0.11191 v 0.29178 q -0.165874,0.0739 -0.329751,0.10792 -0.161877,0.034 -0.38371,0.034 -0.315762,0 -0.551584,-0.1279 -0.233823,-0.1299 -0.363725,-0.37971 -0.129902,-0.24982 -0.129902,-0.61154 0,-0.35374 0.117911,-0.61154 0.11991,-0.25981 0.335747,-0.3997 0.217835,-0.13989 0.511613,-0.13989 z m -0.004,0.27179 q -0.265799,0 -0.42368,0.17387 -0.157881,0.17387 -0.187858,0.48563 h 1.159125 q -0.002,-0.19585 -0.06195,-0.34374 -0.05796,-0.14988 -0.177866,-0.23182 -0.119909,-0.0839 -0.307768,-0.0839 z m 2.166365,1.7267 q 0.08194,0 0.167874,-0.014 0.08594,-0.014 0.139894,-0.034 v 0.25781 q -0.05796,0.026 -0.161878,0.044 -0.101923,0.018 -0.199849,0.018 -0.173869,0 -0.315761,-0.0599 -0.141893,-0.062 -0.227828,-0.20785 -0.08394,-0.14589 -0.08394,-0.40369 v -1.29902 h -0.311765 v -0.16188 l 0.313763,-0.1299 0.131901,-0.47564 h 0.199849 v 0.50762 h 0.641516 v 0.2598 h -0.641516 v 1.28903 q 0,0.20584 0.09393,0.30776 0.09593,0.10193 0.253808,0.10193 z m 2.560068,-1.95852 v 2.19034 h -0.271795 l -0.04796,-0.30777 h -0.01799 q -0.06795,0.11392 -0.175868,0.19186 -0.107918,0.0779 -0.243816,0.11591 -0.133898,0.04 -0.285784,0.04 -0.259804,0 -0.435671,-0.0839 -0.175867,-0.0839 -0.265799,-0.25981 -0.08793,-0.17587 -0.08793,-0.45166 v -1.43491 h 0.335747 v 1.41093 q 0,0.27379 0.123906,0.40969 0.123907,0.1339 0.377715,0.1339 0.243816,0 0.387707,-0.0919 0.14589,-0.0919 0.209842,-0.2698 0.06395,-0.17986 0.06395,-0.43966 v -1.15313 z m 1.696718,-0.04 q 0.06595,0 0.137896,0.008 0.07194,0.006 0.127903,0.018 l -0.04197,0.30776 q -0.05396,-0.014 -0.11991,-0.022 -0.06595,-0.008 -0.123906,-0.008 -0.1319,0 -0.249811,0.054 -0.115913,0.052 -0.203847,0.15188 -0.08793,0.0979 -0.137895,0.23782 -0.04996,0.1379 -0.04996,0.30777 v 1.17511 h -0.333748 v -2.19034 h 0.275792 l 0.03597,0.40369 h 0.01399 q 0.06795,-0.12191 0.163877,-0.22183 0.09593,-0.10192 0.221832,-0.16188 0.127904,-0.0599 0.283786,-0.0599 z m 1.49687,0.004 q 0.391704,0 0.581561,0.17587 0.189856,0.17587 0.189856,0.56158 v 1.48887 h -0.241817 l -0.06395,-0.32375 h -0.01599 q -0.09193,0.11991 -0.191855,0.20184 -0.09992,0.0799 -0.231825,0.12191 -0.129902,0.04 -0.319758,0.04 -0.19985,0 -0.355732,-0.07 -0.153884,-0.0699 -0.243816,-0.21184 -0.08793,-0.14189 -0.08793,-0.35972 0,-0.32776 0.259803,-0.50362 0.259804,-0.17587 0.791403,-0.19186 l 0.377715,-0.016 v -0.1339 q 0,-0.28378 -0.121908,-0.3977 -0.121908,-0.11391 -0.343741,-0.11391 -0.17187,0 -0.327752,0.05 -0.155883,0.05 -0.295777,0.11791 l -0.101923,-0.25181 q 0.147888,-0.0759 0.339744,-0.1299 0.191855,-0.054 0.403695,-0.054 z m 0.443665,1.14714 -0.333748,0.014 q -0.409691,0.016 -0.577564,0.1339 -0.167873,0.11791 -0.167873,0.33374 0,0.18786 0.113914,0.27779 0.113914,0.0899 0.301772,0.0899 0.291779,0 0.477639,-0.16188 0.18586,-0.16188 0.18586,-0.48564 z m 1.390949,0.60354 0.02598,0.046 q -0.03597,0.14589 -0.09193,0.31176 -0.05396,0.16588 -0.11991,0.33175 -0.06395,0.16787 -0.129901,0.31376 h -0.247813 q 0.04197,-0.15988 0.08194,-0.33774 0.03997,-0.17587 0.07194,-0.34774 0.03397,-0.17387 0.05396,-0.31776 z m 3.041704,-2.18835 q -0.241817,0 -0.435671,0.0839 -0.191855,0.0819 -0.327752,0.23982 -0.133899,0.15588 -0.205845,0.37771 -0.07194,0.22184 -0.07194,0.49963 0,0.36772 0.113914,0.63951 0.115912,0.2698 0.34374,0.41769 0.229827,0.14789 0.573567,0.14789 0.195852,0 0.367722,-0.032 0.173869,-0.034 0.337745,-0.0839 v 0.29578 q -0.159879,0.06 -0.335746,0.0879 -0.175867,0.03 -0.417685,0.03 -0.445663,0 -0.745437,-0.18386 -0.297775,-0.18586 -0.447662,-0.5236 -0.147888,-0.33775 -0.147888,-0.7974 0,-0.33175 0.09193,-0.60554 0.09393,-0.2758 0.271795,-0.47565 0.179864,-0.19984 0.439668,-0.30776 0.261802,-0.10992 0.599547,-0.10992 0.221833,0 0.427678,0.044 0.205844,0.044 0.371719,0.1259 l -0.135898,0.28778 q -0.139894,-0.064 -0.307767,-0.10991 -0.165875,-0.048 -0.359729,-0.048 z m 3.087668,0.47365 v 2.19034 h -0.271795 l -0.04796,-0.30777 h -0.01799 q -0.06795,0.11392 -0.175867,0.19186 -0.107919,0.0779 -0.243816,0.11591 -0.133899,0.04 -0.285784,0.04 -0.259804,0 -0.435671,-0.0839 -0.175867,-0.0839 -0.2658,-0.25981 -0.08793,-0.17587 -0.08793,-0.45166 v -1.43491 h 0.335746 v 1.41093 q 0,0.27379 0.123907,0.40969 0.123906,0.1339 0.377715,0.1339 0.243816,0 0.387707,-0.0919 0.14589,-0.0919 0.209841,-0.2698 0.06395,-0.17986 0.06395,-0.43966 v -1.15313 z m 1.035219,2.19034 h -0.333748 v -3.10965 h 0.333748 z m 1.406938,-0.23182 q 0.08194,0 0.167873,-0.014 0.08593,-0.014 0.139895,-0.034 v 0.25781 q -0.05796,0.026 -0.161878,0.044 -0.101923,0.018 -0.199849,0.018 -0.173869,0 -0.315762,-0.0599 -0.141893,-0.062 -0.227828,-0.20785 -0.08394,-0.14589 -0.08394,-0.40369 v -1.29902 h -0.311765 v -0.16188 l 0.313763,-0.1299 0.1319,-0.47564 h 0.19985 v 0.50762 h 0.641515 v 0.2598 h -0.641515 v 1.28903 q 0,0.20584 0.09393,0.30776 0.09593,0.10193 0.253808,0.10193 z m 2.560067,-1.95852 v 2.19034 h -0.271795 l -0.04796,-0.30777 h -0.01799 q -0.06795,0.11392 -0.175867,0.19186 -0.107919,0.0779 -0.243816,0.11591 -0.133899,0.04 -0.285784,0.04 -0.259804,0 -0.435671,-0.0839 -0.175867,-0.0839 -0.2658,-0.25981 -0.08793,-0.17587 -0.08793,-0.45166 v -1.43491 h 0.335746 v 1.41093 q 0,0.27379 0.123907,0.40969 0.123906,0.1339 0.377715,0.1339 0.243816,0 0.387707,-0.0919 0.14589,-0.0919 0.209841,-0.2698 0.06395,-0.17986 0.06395,-0.43966 v -1.15313 z m 1.696719,-0.04 q 0.06595,0 0.137896,0.008 0.07195,0.006 0.127904,0.018 l -0.04197,0.30776 q -0.05396,-0.014 -0.119909,-0.022 -0.06595,-0.008 -0.123906,-0.008 -0.131901,0 -0.249812,0.054 -0.115912,0.052 -0.203846,0.15188 -0.08793,0.0979 -0.137896,0.23782 -0.04996,0.1379 -0.04996,0.30777 v 1.17511 h -0.333748 v -2.19034 h 0.275792 l 0.03597,0.40369 h 0.01399 q 0.06795,-0.12191 0.163876,-0.22183 0.09593,-0.10192 0.221833,-0.16188 0.127903,-0.0599 0.283785,-0.0599 z m 1.49687,0.004 q 0.391705,0 0.581561,0.17587 0.189857,0.17587 0.189857,0.56158 v 1.48887 h -0.241818 l -0.06395,-0.32375 h -0.01599 q -0.09193,0.11991 -0.191855,0.20184 -0.09993,0.0799 -0.231825,0.12191 -0.129902,0.04 -0.319759,0.04 -0.199849,0 -0.355731,-0.07 -0.153884,-0.0699 -0.243816,-0.21184 -0.08793,-0.14189 -0.08793,-0.35972 0,-0.32776 0.259804,-0.50362 0.259804,-0.17587 0.791403,-0.19186 l 0.377714,-0.016 v -0.1339 q 0,-0.28378 -0.121908,-0.3977 -0.121908,-0.11391 -0.34374,-0.11391 -0.17187,0 -0.327753,0.05 -0.155882,0.05 -0.295776,0.11791 l -0.101923,-0.25181 q 0.147888,-0.0759 0.339743,-0.1299 0.191855,-0.054 0.403695,-0.054 z m 0.443665,1.14714 -0.333748,0.014 q -0.40969,0.016 -0.577564,0.1339 -0.167873,0.11791 -0.167873,0.33374 0,0.18786 0.113914,0.27779 0.113914,0.0899 0.301772,0.0899 0.29178,0 0.47764,-0.16188 0.185859,-0.16188 0.185859,-0.48564 z m 2.917796,-1.15113 q 0.279789,0 0.479638,0.1239 0.199849,0.12391 0.305769,0.34774 0.10592,0.22183 0.10592,0.51961 v 0.20584 h -1.512858 q 0.006,0.38571 0.191855,0.58756 0.18586,0.20185 0.523605,0.20185 0.207843,0 0.367722,-0.038 0.15988,-0.038 0.33175,-0.11191 v 0.29178 q -0.165875,0.0739 -0.329751,0.10792 -0.161878,0.034 -0.38371,0.034 -0.315762,0 -0.551584,-0.1279 -0.233823,-0.1299 -0.363725,-0.37971 -0.129902,-0.24982 -0.129902,-0.61154 0,-0.35374 0.117911,-0.61154 0.119909,-0.25981 0.335746,-0.3997 0.217836,-0.13989 0.511614,-0.13989 z m -0.004,0.27179 q -0.265799,0 -0.42368,0.17387 -0.157881,0.17387 -0.187858,0.48563 h 1.159124 q -0.002,-0.19585 -0.06195,-0.34374 -0.05796,-0.14988 -0.177865,-0.23182 -0.11991,-0.0839 -0.307768,-0.0839 z m 3.335485,-0.96327 q 0.565573,0 0.825377,0.22183 0.261802,0.21983 0.261802,0.63152 0,0.18586 -0.06195,0.35374 -0.05996,0.16587 -0.195852,0.29378 -0.135898,0.1259 -0.35773,0.19984 -0.219834,0.0719 -0.539593,0.0719 h -0.355731 v 1.14913 h -0.339744 v -2.92179 z m -0.03198,0.28978 h -0.391704 v 1.1911 h 0.31776 q 0.279789,0 0.465648,-0.06 0.187859,-0.06 0.281788,-0.19386 0.09393,-0.1359 0.09393,-0.35973 0,-0.29178 -0.18586,-0.43367 -0.18586,-0.14389 -0.581561,-0.14389 z m 2.500111,0.40569 q 0.391704,0 0.58156,0.17587 0.189857,0.17587 0.189857,0.56158 v 1.48887 h -0.241817 l -0.06395,-0.32375 h -0.01599 q -0.09193,0.11991 -0.191855,0.20184 -0.09992,0.0799 -0.231825,0.12191 -0.129902,0.04 -0.319759,0.04 -0.199849,0 -0.355731,-0.07 -0.153884,-0.0699 -0.243816,-0.21184 -0.08793,-0.14189 -0.08793,-0.35972 0,-0.32776 0.259804,-0.50362 0.259804,-0.17587 0.791403,-0.19186 l 0.377715,-0.016 v -0.1339 q 0,-0.28378 -0.121908,-0.3977 -0.121908,-0.11391 -0.343741,-0.11391 -0.17187,0 -0.327752,0.05 -0.155883,0.05 -0.295777,0.11791 l -0.101923,-0.25181 q 0.147888,-0.0759 0.339743,-0.1299 0.191856,-0.054 0.403696,-0.054 z m 0.443665,1.14714 -0.333748,0.014 q -0.409691,0.016 -0.577564,0.1339 -0.167874,0.11791 -0.167874,0.33374 0,0.18786 0.113914,0.27779 0.113914,0.0899 0.301773,0.0899 0.291779,0 0.477639,-0.16188 0.18586,-0.16188 0.18586,-0.48564 z m 1.718703,0.84736 q 0.08194,0 0.167874,-0.014 0.08594,-0.014 0.139894,-0.034 v 0.25781 q -0.05796,0.026 -0.161878,0.044 -0.101923,0.018 -0.199849,0.018 -0.173869,0 -0.315761,-0.0599 -0.141893,-0.062 -0.227828,-0.20785 -0.08394,-0.14589 -0.08394,-0.40369 v -1.29902 h -0.311765 v -0.16188 l 0.313763,-0.1299 0.131901,-0.47564 h 0.199849 v 0.50762 h 0.641516 v 0.2598 h -0.641516 v 1.28903 q 0,0.20584 0.09393,0.30776 0.09593,0.10193 0.253808,0.10193 z m 1.74668,-1.99849 q 0.06595,0 0.137896,0.008 0.07195,0.006 0.127903,0.018 l -0.04197,0.30776 q -0.05396,-0.014 -0.11991,-0.022 -0.06595,-0.008 -0.123906,-0.008 -0.131901,0 -0.249812,0.054 -0.115912,0.052 -0.203846,0.15188 -0.08793,0.0979 -0.137896,0.23782 -0.04996,0.1379 -0.04996,0.30777 v 1.17511 h -0.333748 v -2.19034 h 0.275792 l 0.03597,0.40369 h 0.01399 q 0.06795,-0.12191 0.163877,-0.22183 0.09593,-0.10192 0.221832,-0.16188 0.127903,-0.0599 0.283786,-0.0599 z m 1.009238,0.04 v 2.19034 h -0.33175 v -2.19034 z m -0.161878,-0.81939 q 0.08194,0 0.139894,0.054 0.05996,0.052 0.05996,0.16388 0,0.10992 -0.05996,0.16388 -0.05796,0.054 -0.139894,0.054 -0.08593,0 -0.143891,-0.054 -0.05596,-0.054 -0.05596,-0.16388 0,-0.11192 0.05596,-0.16388 0.05796,-0.054 0.143891,-0.054 z m 3.241555,0.77942 q 0.3617268,0 0.545588,0.18985 0.1838612,0.18786 0.1838612,0.60555 v 1.43491 h -0.3277525 v -1.41893 q 0,-0.2658 -0.1159125,-0.3977 -0.113914,-0.1339 -0.3397435,-0.1339 -0.3177601,0 -0.4616515,0.18387 -0.1438913,0.18386 -0.1438913,0.54159 v 1.22507 h -0.3297509 v -1.41893 q 0,-0.17786 -0.05196,-0.29577 -0.04996,-0.11791 -0.151885,-0.17587 -0.09992,-0.06 -0.253809,-0.06 -0.217835,0 -0.349736,0.0899 -0.1319,0.0899 -0.191855,0.26779 -0.05796,0.17587 -0.05796,0.43368 v 1.15912 h -0.331749 v -2.19034 h 0.267797 l 0.04996,0.30976 h 0.01799 q 0.06595,-0.11391 0.165875,-0.19185 0.09992,-0.0779 0.223831,-0.11791 0.123906,-0.04 0.263801,-0.04 0.249811,0 0.417684,0.0939 0.169872,0.0919 0.245815,0.28178 h 0.01799 q 0.1079186,-0.18985 0.2957768,-0.28178 0.1878581,-0.0939 0.4116892,-0.0939 z m 3.2995084,1.13114 q 0,0.2698 -0.069947,0.48164 -0.069947,0.21184 -0.2018476,0.35773 -0.1319004,0.14589 -0.3197585,0.22383 -0.1858597,0.0759 -0.4216817,0.0759 -0.219834,0 -0.4036952,-0.0759 -0.1818627,-0.0779 -0.3157616,-0.22383 -0.1319004,-0.14589 -0.2058446,-0.35773 -0.071946,-0.21184 -0.071946,-0.48164 0,-0.35973 0.1219079,-0.61154 0.121908,-0.2538 0.3477375,-0.3857 0.227828,-0.1339 0.5415911,-0.1339 0.2997736,0 0.5236046,0.1339 0.2258295,0.13389 0.349736,0.3877 0.1259049,0.25181 0.1259049,0.60954 z m -1.6667416,0 q 0,0.2638 0.069947,0.45766 0.069947,0.19385 0.2158371,0.29977 0.1458898,0.10592 0.3757163,0.10592 0.227828,0 0.3737178,-0.10592 0.1478884,-0.10592 0.2178356,-0.29977 0.069947,-0.19386 0.069947,-0.45766 0,-0.2618 -0.069947,-0.45166 -0.069947,-0.19185 -0.2158371,-0.29577 -0.1458898,-0.10393 -0.3777148,-0.10393 -0.341742,0 -0.5016213,0.22583 -0.1578808,0.22583 -0.1578808,0.62553 z m 0.8333708,-2.03446 q 0.049962,0.0899 0.1398944,0.20384 0.089932,0.11192 0.1898567,0.21984 0.099924,0.10792 0.1778657,0.18586 v 0.044 h -0.235822 q -0.1079185,-0.0699 -0.2218325,-0.17187 -0.113914,-0.10192 -0.2218325,-0.21184 -0.1079185,0.10992 -0.219834,0.21184 -0.109917,0.0999 -0.2178356,0.17187 h -0.227828 v -0.044 q 0.075943,-0.0799 0.1718703,-0.18786 0.097926,-0.10792 0.1858597,-0.21983 0.089932,-0.11192 0.1418928,-0.20185 z m 2.4441527,0.90332 q 0.3897058,0 0.5895549,0.19185 0.1998491,0.18986 0.1998491,0.61154 v 1.42692 h -0.3277525 v -1.40494 q 0,-0.27379 -0.125905,-0.40969 -0.1239064,-0.1359 -0.3817118,-0.1359 -0.3637253,0 -0.5116137,0.20585 -0.1478883,0.20584 -0.1478883,0.59755 v 1.14713 h -0.3317496 v -2.19034 h 0.2677979 l 0.049962,0.31576 h 0.017987 q 0.069947,-0.11591 0.1778657,-0.19386 0.1079185,-0.0799 0.2418174,-0.11991 0.1338989,-0.042 0.2817872,-0.042 z m 1.8046378,0.04 v 2.19034 h -0.3317495 v -2.19034 z m -0.1618778,-0.81939 q 0.081938,0 0.1398944,0.054 0.059955,0.052 0.059955,0.16388 0,0.10992 -0.059955,0.16388 -0.057956,0.054 -0.1398944,0.054 -0.085935,0 -0.1438913,-0.054 -0.055958,-0.054 -0.055958,-0.16388 0,-0.11192 0.055958,-0.16388 0.057956,-0.054 0.1438913,-0.054 z m 2.75192458,1.91056 q 0,0.2698 -0.06994719,0.48164 -0.06994718,0.21184 -0.2018476,0.35773 -0.13190041,0.14589 -0.31975858,0.22383 -0.18585967,0.0759 -0.42168161,0.0759 -0.219834,0 -0.4036952,-0.0759 -0.1818627,-0.0779 -0.3157616,-0.22383 -0.1319004,-0.14589 -0.2058446,-0.35773 -0.071946,-0.21184 -0.071946,-0.48164 0,-0.35973 0.121908,-0.61154 0.1219079,-0.2538 0.3477374,-0.3857 0.227828,-0.1339 0.5415911,-0.1339 0.29977369,0 0.5236047,0.1339 0.22582949,0.13389 0.34973594,0.3877 0.12590494,0.25181 0.12590494,0.60954 z m -1.66674158,0 q 0,0.2638 0.069947,0.45766 0.069947,0.19385 0.215837,0.29977 0.1458899,0.10592 0.3757164,0.10592 0.22782794,0 0.37371779,-0.10592 0.14788834,-0.10592 0.21783553,-0.29977 0.0699472,-0.19386 0.0699472,-0.45766 0,-0.2618 -0.0699472,-0.45166 -0.0699472,-0.19185 -0.21583704,-0.29577 -0.14588985,-0.10393 -0.37771478,-0.10393 -0.341742,0 -0.5016213,0.22583 -0.1578808,0.22583 -0.1578808,0.62553 z"
       id="text5"
       aria-label="Arquitetura, Cultura e Patrimônio" />
  </g>
</svg>
